HIERARCHY
ROOT pelvis
{
  OFFSET 0 100 0
  CHANNELS 6 Xposition Yposition Zposition Zrotation Xrotation Yrotation
  JOINT pelvis_right_femur
  {
    OFFSET -10.78128 -3.44521 -0.5502486
    CHANNELS 3 Zrotation Xrotation Yrotation
    JOINT right_femur_tibia
    {
      OFFSET -0.8047443 -44.0398 -0.1307829
      CHANNELS 3 Zrotation Xrotation Yrotation
      JOINT right_tibia_foot
      {
        OFFSET 3.006224 -47.83518 -5
        CHANNELS 3 Zrotation Xrotation Yrotation
        End Site
        {
          OFFSET 0 -5 15
        }
      }
    }
  }
  JOINT pelvis_left_femur
  {
    OFFSET 10.78128 -3.44521 -0.5502486
    CHANNELS 3 Zrotation Xrotation Yrotation
    JOINT left_femur_tibia
    {
      OFFSET 0.8047443 -44.0398 -0.1307829
      CHANNELS 3 Zrotation Xrotation Yrotation
      JOINT left_tibia_foot
      {
        OFFSET -4.370144 -48.10324 -4.275266
        CHANNELS 3 Zrotation Xrotation Yrotation
        End Site
        {
          OFFSET 0 -5 15
        }
      }
    }
  }
  JOINT pelvis_spine1
  {
    OFFSET 0 6.468898 -3.129235
    CHANNELS 3 Zrotation Xrotation Yrotation
    JOINT spine1
    {
      OFFSET 0 23.15396 4.99043
      CHANNELS 3 Zrotation Xrotation Yrotation
      JOINT spine2
      {
        OFFSET 0 20.79997 -5.064912
        CHANNELS 3 Zrotation Xrotation Yrotation
        JOINT neck
        {
          OFFSET 0 14.38658 9.616178
          CHANNELS 3 Zrotation Xrotation Yrotation
          End Site
          {
            OFFSET 0 20 0
          }
        }
      }
      JOINT right_manubrium
      {
        OFFSET -5.722621 16.35077 3.967754
        CHANNELS 3 Zrotation Xrotation Yrotation
        JOINT right_clavicle
        {
          OFFSET -13.16364 1.694482 -4.693211
          CHANNELS 3 Zrotation Xrotation Yrotation
          JOINT right_humerus
          {
            OFFSET -28.5034 -0.3100689 -2.792744
            CHANNELS 3 Zrotation Xrotation Yrotation
            JOINT right_radius
            {
              OFFSET -25.15693 0.02248979 -1.271978
              CHANNELS 3 Zrotation Xrotation Yrotation
              End Site
              {
                OFFSET -15 0 0
              }
            }
          }
        }
      }
      JOINT left_manubrium
      {
        OFFSET 5.722621 16.35077 3.967754
        CHANNELS 3 Zrotation Xrotation Yrotation
        JOINT left_clavicle
        {
          OFFSET 13.16364 1.694482 -4.693211
          CHANNELS 3 Zrotation Xrotation Yrotation
          JOINT left_humerus
          {
            OFFSET 29.39168 -1.063119 -2.237045
            CHANNELS 3 Zrotation Xrotation Yrotation
            JOINT left_radius
            {
              OFFSET 24.59957 -0.9528479 0.9047498
              CHANNELS 3 Zrotation Xrotation Yrotation
              End Site
              {
                OFFSET 15 -0 -0
              }
            }
          }
        }
      }
    }
  }
}
MOTION
Frames: 19
Frame Time: 0.0416666666667
0 103.5113 0 1.589537 -0.2317005 0.09084441 2.602133 -16.49192 10.42121 -0 42.65523 -0 -6.927251 -18.1198 -3.111274 -7.672771 8.415235 -23.88921 -0 5.924959 -0 13.45832 -12.89529 28.05708 -4.203314 -4.398542 5.259988 2.394487 10.08344 -7.416585 1.452961 21.92661 6.100466 2.960735 -23.61801 8.956988 7.445182 -20.00459 11.81001 84.17911 38.14629 -16.96444 -0 0 17.46458 -5.708482 7.07092 3.967956 5.87521 -19.24811 -1.282095 -91.59637 20.55349 19.78313 0 0 -13.82188 15.78231 14.59978 -4.04654
0.3743943 103.9216 1.49914 1.311024 -0.2026168 0.1879133 2.890808 -17.59547 9.81705 -0 41.65504 -0 -6.918988 -16.41353 -2.842804 -7.456633 8.504313 -23.20283 -0 5.932019 -0 12.81684 -13.61853 27.51274 -3.963912 -4.116468 5.1651 2.315416 10.20656 -7.425035 1.458617 21.77212 6.26297 3.096268 -23.85685 9.018526 7.23489 -20.01046 11.82427 84.47667 37.60481 -17.17117 -0 0 17.1446 -6.593632 7.585159 4.266134 6.114147 -19.6467 -1.389224 -91.50153 20.50637 19.68734 0 0 -14.35221 15.6694 14.77387 -3.86096
0.6620674 104.1532 4.14437 -0.4749753 -1.051957 0.3991483 4.435567 -22.38514 6.710618 -0 37.44678 -0 -7.340835 -7.133896 -2.198256 -5.850111 10.98566 -19.87586 -0 7.25733 -0 6.784619 -18.15049 23.4833 -2.446505 -2.257544 3.571157 2.078024 10.03842 -7.2504 1.717039 21.85767 6.860249 3.387406 -25.21425 9.572872 4.987728 -19.40892 11.45775 86.76027 31.89996 -18.40808 -0 0 14.45493 -10.53267 8.939422 6.067414 6.386211 -20.70986 -2.324594 -92.37405 24.54716 20.02006 0 0 -15.74826 10.70102 16.94726 2.093342
0.9286261 104.255 7.023921 -0.9144575 -0.02746029 0.6267985 5.266041 -25.59671 6.267179 -0 32.08738 -0 -7.006911 -6.675615 -1.939902 -5.541934 11.75964 -19.25672 -0 7.344667 -0 5.530395 -19.94512 22.36122 -2.227635 -1.94851 3.551868 2.357153 9.666118 -7.505792 1.7573 21.43605 7.055509 3.529581 -25.92292 9.793282 4.831741 -19.1413 11.31249 86.91436 31.80847 -19.16515 -0 0 14.10286 -10.56397 9.421802 5.910145 6.859385 -21.1439 -2.003117 -92.45843 25.15687 19.8179 0 0 -17.1005 10.0066 17.18215 2.889204
1.176699 104.1337 10.23194 -1.276104 1.151362 0.9068462 5.909253 -29.01265 5.458874 -0 25.72695 -0 -6.823873 -5.802535 -1.515783 -5.296202 12.73355 -18.43568 -0 7.714305 -0 4.066435 -21.79884 20.72391 -2.116629 -1.631482 3.461637 2.709635 9.233173 -7.792716 1.754913 21.0056 7.307751 3.726977 -26.63855 9.98066 4.673795 -18.6862 11.16629 87.14571 31.7828 -20.09692 -0 0 13.36342 -10.8049 9.956468 5.902729 7.305809 -21.63005 -1.721848 -92.28663 25.61128 19.28185 0 0 -18.70035 9.32427 17.29057 3.570486
1.410434 103.7753 13.84143 -1.435157 2.038271 1.259313 6.044783 -31.70202 4.089572 -0 19.71065 -0 -6.892525 -4.520272 -0.9648993 -5.177546 13.74551 -17.39748 -0 8.325997 -0 2.708106 -23.19191 18.83801 -2.126318 -1.360457 3.264112 3.008601 8.876598 -8.005513 1.693877 20.73443 7.553139 3.917347 -27.05042 10.04108 4.430207 -18.09377 11.06416 87.52192 31.57703 -20.96202 -0 0 12.17519 -11.49299 10.43897 6.160107 7.651319 -22.12918 -1.650132 -91.60798 25.49015 18.13152 0 0 -20.33851 9.114973 17.24054 3.516468
1.619385 103.1986 17.96425 -1.481902 2.670882 1.702178 5.877476 -33.8002 2.25051 -0 13.75585 -0 -7.191148 -2.967609 -0.3994881 -5.120493 15.04432 -16.10018 -0 9.461339 -0 1.158733 -24.20648 16.58138 -2.149591 -1.140713 2.913019 3.284408 8.512077 -8.188233 1.574754 20.6194 7.774863 4.062695 -27.22133 9.976021 4.002577 -17.3267 10.96371 88.14498 30.99898 -21.90658 -0 0 10.47628 -12.43457 10.79188 6.569237 7.885519 -22.63774 -1.764271 -90.56023 25.11559 16.4375 0 0 -22.1677 9.036811 17.11319 3.131254
1.792253 102.4883 22.6951 -1.474207 2.977226 2.226716 5.681535 -34.84585 0.3850316 -0 8.803711 -0 -7.691944 -1.409817 0.03201039 -5.108531 16.4859 -14.61913 -0 11.59143 -0 -0.4944724 -24.43198 14.17997 -2.04013 -1.079203 2.477887 3.48809 8.206393 -8.36427 1.379787 20.63198 7.935973 4.121976 -27.14542 9.751031 3.385897 -16.51677 10.87113 89.02845 30.01727 -22.91885 -0 0 8.500418 -13.39027 10.92719 6.977019 7.969728 -23.12669 -2.040384 -89.34233 24.47627 14.50811 0 0 -24.07776 9.102546 16.8622 2.493279
1.930449 101.8739 28.0821 -1.578835 2.959554 2.793211 5.984141 -34.24516 -0.6200722 -0 6.514034 -0 -8.326133 -0.1332648 0.1550052 -5.037037 17.48064 -13.14608 -0 15.67665 -0 -2.200745 -23.19868 11.89892 -1.535756 -1.257269 2.120435 3.55042 8.073722 -8.548878 1.104911 20.65423 8.010816 4.070052 -26.9655 9.381113 2.686694 -15.92215 10.80603 90.0356 28.77937 -23.86896 -0 0 6.837867 -14.00073 10.81955 7.203824 7.805085 -23.46124 -2.380689 -88.45028 23.71154 13.2148 0 0 -25.55645 9.167783 16.36758 2.040872
2.07099 101.7103 34.01961 -1.978886 2.712949 3.311336 7.055356 -31.50289 -0.007622098 -0 8.299929 -0 -8.956179 0.389196 -0.05858528 -4.70816 16.8087 -12.07306 -0 22.6437 -0 -3.850099 -19.90231 10.06858 -0.4594831 -1.588748 2.109314 3.409365 8.230844 -8.673224 0.7991366 20.54309 8.014791 3.942572 -26.91346 8.983724 2.239356 -15.8394 10.82636 90.72823 27.916 -24.38664 -0 0 6.368759 -14.06575 10.6856 7.205125 7.276536 -23.38636 -2.617488 -88.50598 23.11326 13.74352 0 0 -25.65346 8.980148 15.56613 2.424964
2.258407 102.2243 40.20664 -2.554324 2.175508 3.627981 8.167915 -26.87441 1.494747 -0 12.60993 -0 -9.62342 -0.4102584 -0.415022 -4.01926 13.74246 -11.62513 -0 32.23047 -0 -5.373776 -15.07871 8.90165 0.8481827 -1.677718 2.49295 3.096627 8.550008 -8.538381 0.6038426 20.5124 7.942325 3.824182 -26.85101 8.67545 2.320251 -16.08432 10.96744 90.70448 28.15041 -24.08909 -0 0 7.087939 -13.9108 10.84569 7.163272 6.37037 -22.75949 -2.740165 -89.50375 23.1484 15.98448 0 0 -23.87926 8.232525 14.86528 3.978081
2.469005 103.3021 46.31652 -2.795553 1.014003 3.587878 8.392183 -21.45573 2.29698 -0 15.62152 -0 -10.51725 -2.51393 -0.8183704 -3.244284 9.304021 -11.43446 -0 42.44533 -0 -6.49635 -10.60113 8.644004 1.612615 -1.249693 2.984626 2.716392 8.761949 -8.031095 0.6623234 21.05918 7.667795 3.740236 -26.15867 8.383718 2.660154 -16.05894 11.13675 90.18216 29.2236 -23.0375 -0 0 7.730087 -14.00826 11.2004 7.158822 5.362936 -21.91425 -2.943039 -90.49333 23.8779 17.90018 0 0 -21.14579 7.163002 14.87244 5.826472
2.630083 104.7011 52.17977 -2.473327 -0.7458272 3.190794 7.874724 -16.05013 2.109076 -0 15.9509 -0 -11.48194 -4.925602 -1.278966 -2.694174 4.726515 -11.01431 -0 51.17784 -0 -6.89103 -7.666292 9.354069 1.587062 -0.5581111 3.471861 2.318752 8.926353 -7.30934 0.9368461 22.09357 7.154425 3.662941 -24.76439 8.011989 2.777584 -15.77667 11.24065 89.63923 30.12005 -21.62503 -0 0 7.809867 -14.47779 11.44834 7.163232 4.62883 -21.32891 -3.270589 -90.88934 24.56574 18.42212 0 0 -18.60593 6.477555 15.44219 6.753173
2.707679 106.2407 57.75054 -1.843412 -2.57998 2.574039 7.214985 -10.80845 1.5709 -0 14.53376 -0 -12.20893 -6.693905 -1.611653 -2.328675 0.008322953 -10.24009 -0 57.3221 -0 -6.495577 -6.007833 10.68819 1.130632 0.02909994 4.091069 1.908434 9.323652 -6.604709 1.251373 23.03046 6.568598 3.60273 -23.29274 7.594878 2.595518 -15.82297 11.35572 89.17798 30.43437 -20.11134 -0 0 8.05813 -15.37444 11.71274 7.347353 4.269244 -21.17062 -3.625455 -91.05164 24.48988 18.5041 0 0 -16.57699 6.457004 15.9914 6.580145
2.724497 107.7383 63.03255 -1.18385 -4.115617 1.864941 6.708622 -5.661643 1.061661 -0 12.24288 -0 -12.53729 -7.63654 -1.670771 -1.89118 -5.193221 -9.11997 -0 60.03793 -0 -5.392943 -5.069911 12.27683 0.5750076 0.3540577 4.875799 1.496995 10.09031 -6.033579 1.476582 23.51107 6.023379 3.521651 -22.19403 7.168835 2.21112 -16.62188 11.5847 88.67935 30.18212 -18.47749 -0 0 9.130758 -16.79327 12.2521 7.96628 4.167949 -21.36273 -3.984862 -91.38827 23.52144 19.15986 0 0 -14.94429 6.860909 16.19861 5.793995
2.742166 108.9851 68.0683 -0.6843425 -5.19022 1.155283 6.450406 -0.6251277 0.7081361 -0 9.716949 -0 -12.33627 -8.113325 -1.481776 -1.096213 -10.84841 -7.632172 -0 58.3064 -0 -3.723262 -4.477673 13.82302 0.1191781 0.3547349 5.725997 1.12677 11.19222 -5.656627 1.553656 23.41548 5.520402 3.302465 -21.62056 6.749593 1.68787 -18.34486 11.95574 88.03141 29.31172 -16.60922 -0 0 11.34325 -18.72803 13.19714 9.208189 4.163844 -21.75094 -4.347407 -91.99687 21.86145 20.79751 0 0 -13.61425 7.298671 15.95834 4.947871
2.838583 109.7911 72.94858 -0.5012585 -5.710074 0.5054827 6.45454 4.047984 0.5635002 -0 7.651069 -0 -11.54734 -8.818336 -1.1847 0.2350012 -16.3647 -5.834845 -0 51.56476 -0 -1.802662 -3.99307 15.01856 -0.102221 0.01797568 6.463428 0.8753154 12.40074 -5.511117 1.476524 22.79104 5.032712 2.824892 -21.54998 6.383278 1.091623 -20.85644 12.39268 87.19809 27.81178 -14.47942 -0 0 14.62122 -20.92257 14.47816 11.05551 4.105677 -22.12636 -4.644701 -92.76635 19.94988 23.32018 0 0 -12.55078 7.408541 15.33938 4.514169
3.074335 110.0346 77.80724 -0.6850478 -5.751633 -0.06298737 6.597938 8.078974 0.5727139 -0 6.655584 -0 -10.36129 -10.4702 -0.9351973 1.940013 -20.76294 -4.089215 -0 40.69105 -0 -0.2173615 -3.570566 15.74473 -0.05835954 -0.5295983 6.894366 0.7724724 13.25283 -5.501207 1.318066 21.95404 4.574601 2.111641 -21.70516 6.155273 0.4855631 -23.55271 12.68589 86.22031 25.93605 -12.14056 -0 0 18.33136 -22.84185 15.68901 13.12353 3.945321 -22.18815 -4.735346 -93.54361 18.41624 26.13323 0 0 -11.5165 7.020597 14.6533 4.690765
3.467472 109.7062 82.7948 -1.08379 -5.608312 -0.5731042 6.61195 11.4923 0.5501157 -0 6.883181 -0 -9.258855 -13.06297 -0.7474972 3.416807 -23.35513 -3.057831 -0 28.37037 -0 0.4231343 -3.319393 16.28517 0.137033 -1.026013 6.953766 0.7037219 13.29957 -5.360414 1.204396 21.39226 4.261411 1.446182 -21.61729 6.140547 -0.07528386 -25.55138 12.59326 85.16793 24.29448 -9.690958 -0 0 21.48256 -24.0055 16.23178 14.78449 3.821824 -21.68319 -4.505127 -94.27427 17.66691 28.42713 0 0 -10.00903 6.324443 14.30902 5.210573
